<mxfile host="app.diagrams.net" modified="2022-10-29T07:48:52.594Z" agent="5.0 (Windows NT 10.0; Win64; x64) AppleWebKit/537.36 (KHTML, like Gecko) Chrome/102.0.0.0 Safari/537.36" etag="xi4HZNyEoqIw21vYOear" version="20.5.1" type="github">
  <diagram id="76r8wgDA9j_5PSy-32Yw" name="第 1 页">
    <mxGraphModel dx="2031" dy="1089" grid="1" gridSize="10" guides="1" tooltips="1" connect="1" arrows="1" fold="1" page="1" pageScale="1" pageWidth="2339" pageHeight="3300" math="0" shadow="0">
      <root>
        <mxCell id="0" />
        <mxCell id="1" parent="0" />
        <mxCell id="XpTZmv0MdNqDgMKop7gp-3" value="" style="edgeStyle=orthogonalEdgeStyle;rounded=0;orthogonalLoop=1;jettySize=auto;html=1;" edge="1" parent="1" source="XpTZmv0MdNqDgMKop7gp-1" target="XpTZmv0MdNqDgMKop7gp-2">
          <mxGeometry relative="1" as="geometry" />
        </mxCell>
        <mxCell id="XpTZmv0MdNqDgMKop7gp-1" value="image" style="whiteSpace=wrap;html=1;aspect=fixed;fillColor=#d5e8d4;strokeColor=#82b366;" vertex="1" parent="1">
          <mxGeometry x="200" y="280" width="80" height="80" as="geometry" />
        </mxCell>
        <mxCell id="XpTZmv0MdNqDgMKop7gp-20" style="edgeStyle=orthogonalEdgeStyle;rounded=0;orthogonalLoop=1;jettySize=auto;html=1;" edge="1" parent="1" source="XpTZmv0MdNqDgMKop7gp-2">
          <mxGeometry relative="1" as="geometry">
            <mxPoint x="420" y="470" as="targetPoint" />
          </mxGeometry>
        </mxCell>
        <mxCell id="XpTZmv0MdNqDgMKop7gp-2" value="CONV" style="rounded=0;whiteSpace=wrap;html=1;fillColor=#ffe6cc;strokeColor=#d79b00;" vertex="1" parent="1">
          <mxGeometry x="380" y="255" width="80" height="130" as="geometry" />
        </mxCell>
        <mxCell id="XpTZmv0MdNqDgMKop7gp-5" value="BN" style="rounded=0;whiteSpace=wrap;html=1;fillColor=#b1ddf0;strokeColor=#10739e;" vertex="1" parent="1">
          <mxGeometry x="460" y="255" width="40" height="130" as="geometry" />
        </mxCell>
        <mxCell id="XpTZmv0MdNqDgMKop7gp-6" value="relu" style="rounded=0;whiteSpace=wrap;html=1;fillColor=#f5f5f5;strokeColor=#666666;fontColor=#333333;" vertex="1" parent="1">
          <mxGeometry x="500" y="255" width="40" height="130" as="geometry" />
        </mxCell>
        <mxCell id="XpTZmv0MdNqDgMKop7gp-7" value="" style="edgeStyle=orthogonalEdgeStyle;rounded=0;orthogonalLoop=1;jettySize=auto;html=1;" edge="1" parent="1" target="XpTZmv0MdNqDgMKop7gp-8">
          <mxGeometry relative="1" as="geometry">
            <mxPoint x="540" y="320" as="sourcePoint" />
          </mxGeometry>
        </mxCell>
        <mxCell id="XpTZmv0MdNqDgMKop7gp-8" value="CONV" style="rounded=0;whiteSpace=wrap;html=1;fillColor=#ffe6cc;strokeColor=#d79b00;" vertex="1" parent="1">
          <mxGeometry x="610" y="255" width="80" height="130" as="geometry" />
        </mxCell>
        <mxCell id="XpTZmv0MdNqDgMKop7gp-9" value="BN" style="rounded=0;whiteSpace=wrap;html=1;fillColor=#b1ddf0;strokeColor=#10739e;" vertex="1" parent="1">
          <mxGeometry x="690" y="255" width="40" height="130" as="geometry" />
        </mxCell>
        <mxCell id="XpTZmv0MdNqDgMKop7gp-10" value="relu" style="rounded=0;whiteSpace=wrap;html=1;fillColor=#f5f5f5;strokeColor=#666666;fontColor=#333333;" vertex="1" parent="1">
          <mxGeometry x="730" y="255" width="40" height="130" as="geometry" />
        </mxCell>
        <mxCell id="XpTZmv0MdNqDgMKop7gp-11" value="" style="edgeStyle=orthogonalEdgeStyle;rounded=0;orthogonalLoop=1;jettySize=auto;html=1;" edge="1" parent="1" target="XpTZmv0MdNqDgMKop7gp-12">
          <mxGeometry relative="1" as="geometry">
            <mxPoint x="770" y="320" as="sourcePoint" />
          </mxGeometry>
        </mxCell>
        <mxCell id="XpTZmv0MdNqDgMKop7gp-12" value="CONV" style="rounded=0;whiteSpace=wrap;html=1;fillColor=#ffe6cc;strokeColor=#d79b00;" vertex="1" parent="1">
          <mxGeometry x="840" y="255" width="80" height="130" as="geometry" />
        </mxCell>
        <mxCell id="XpTZmv0MdNqDgMKop7gp-13" value="BN" style="rounded=0;whiteSpace=wrap;html=1;fillColor=#b1ddf0;strokeColor=#10739e;" vertex="1" parent="1">
          <mxGeometry x="920" y="255" width="40" height="130" as="geometry" />
        </mxCell>
        <mxCell id="XpTZmv0MdNqDgMKop7gp-14" value="relu" style="rounded=0;whiteSpace=wrap;html=1;fillColor=#f5f5f5;strokeColor=#666666;fontColor=#333333;" vertex="1" parent="1">
          <mxGeometry x="960" y="255" width="40" height="130" as="geometry" />
        </mxCell>
        <mxCell id="XpTZmv0MdNqDgMKop7gp-15" value="" style="edgeStyle=orthogonalEdgeStyle;rounded=0;orthogonalLoop=1;jettySize=auto;html=1;" edge="1" parent="1">
          <mxGeometry relative="1" as="geometry">
            <mxPoint x="1000" y="319.5" as="sourcePoint" />
            <mxPoint x="1070" y="319.5" as="targetPoint" />
          </mxGeometry>
        </mxCell>
        <mxCell id="XpTZmv0MdNqDgMKop7gp-16" value="" style="rounded=0;whiteSpace=wrap;html=1;fillColor=#fff2cc;strokeColor=#d6b656;" vertex="1" parent="1">
          <mxGeometry x="360" y="505" width="120" height="110" as="geometry" />
        </mxCell>
        <mxCell id="XpTZmv0MdNqDgMKop7gp-17" value="" style="rounded=0;whiteSpace=wrap;html=1;fillColor=#d5e8d4;strokeColor=#82b366;" vertex="1" parent="1">
          <mxGeometry x="350" y="510" width="120" height="115" as="geometry" />
        </mxCell>
        <mxCell id="XpTZmv0MdNqDgMKop7gp-18" value="" style="rounded=0;whiteSpace=wrap;html=1;fillColor=#dae8fc;strokeColor=#6c8ebf;" vertex="1" parent="1">
          <mxGeometry x="340" y="515" width="120" height="120" as="geometry" />
        </mxCell>
        <mxCell id="XpTZmv0MdNqDgMKop7gp-21" value="image 1" style="whiteSpace=wrap;html=1;aspect=fixed;fillColor=#d5e8d4;strokeColor=#82b366;" vertex="1" parent="1">
          <mxGeometry x="200" y="535" width="80" height="80" as="geometry" />
        </mxCell>
        <mxCell id="XpTZmv0MdNqDgMKop7gp-26" value="image 2" style="whiteSpace=wrap;html=1;aspect=fixed;fillColor=#d5e8d4;strokeColor=#82b366;" vertex="1" parent="1">
          <mxGeometry x="200" y="735" width="80" height="80" as="geometry" />
        </mxCell>
        <mxCell id="XpTZmv0MdNqDgMKop7gp-31" value="image m" style="whiteSpace=wrap;html=1;aspect=fixed;fillColor=#d5e8d4;strokeColor=#82b366;" vertex="1" parent="1">
          <mxGeometry x="200" y="995" width="80" height="80" as="geometry" />
        </mxCell>
        <mxCell id="XpTZmv0MdNqDgMKop7gp-32" value="&lt;b&gt;&lt;font style=&quot;font-size: 36px;&quot;&gt;.&lt;br&gt;.&lt;br&gt;.&lt;/font&gt;&lt;/b&gt;" style="text;html=1;align=center;verticalAlign=middle;resizable=0;points=[];autosize=1;strokeColor=none;fillColor=none;" vertex="1" parent="1">
          <mxGeometry x="225" y="830" width="30" height="140" as="geometry" />
        </mxCell>
        <mxCell id="XpTZmv0MdNqDgMKop7gp-33" value="" style="shape=curlyBracket;whiteSpace=wrap;html=1;rounded=1;fontSize=36;" vertex="1" parent="1">
          <mxGeometry x="150" y="580" width="20" height="450" as="geometry" />
        </mxCell>
        <mxCell id="XpTZmv0MdNqDgMKop7gp-34" value="&lt;font style=&quot;font-size: 24px;&quot;&gt;batch&lt;/font&gt;" style="text;html=1;align=center;verticalAlign=middle;resizable=0;points=[];autosize=1;strokeColor=none;fillColor=none;fontSize=36;" vertex="1" parent="1">
          <mxGeometry x="50" y="770" width="80" height="60" as="geometry" />
        </mxCell>
        <mxCell id="XpTZmv0MdNqDgMKop7gp-35" value="BN" style="rounded=0;whiteSpace=wrap;html=1;fillColor=#f5f5f5;fontColor=#333333;strokeColor=#666666;" vertex="1" parent="1">
          <mxGeometry x="540" y="495" width="980" height="620" as="geometry" />
        </mxCell>
        <mxCell id="XpTZmv0MdNqDgMKop7gp-37" value="" style="rounded=0;whiteSpace=wrap;html=1;fillColor=#f8cecc;strokeColor=#b85450;" vertex="1" parent="1">
          <mxGeometry x="570" y="510" width="40" height="40" as="geometry" />
        </mxCell>
        <mxCell id="XpTZmv0MdNqDgMKop7gp-39" value="&lt;font style=&quot;font-size: 36px;&quot;&gt;...&lt;/font&gt;" style="text;html=1;align=center;verticalAlign=middle;resizable=0;points=[];autosize=1;strokeColor=none;fillColor=none;fontSize=24;" vertex="1" parent="1">
          <mxGeometry x="915" y="545" width="50" height="60" as="geometry" />
        </mxCell>
        <mxCell id="XpTZmv0MdNqDgMKop7gp-40" value="" style="rounded=0;whiteSpace=wrap;html=1;fillColor=#f8cecc;strokeColor=#b85450;" vertex="1" parent="1">
          <mxGeometry x="650" y="510" width="40" height="40" as="geometry" />
        </mxCell>
        <mxCell id="XpTZmv0MdNqDgMKop7gp-41" value="" style="rounded=0;whiteSpace=wrap;html=1;fillColor=#f8cecc;strokeColor=#b85450;" vertex="1" parent="1">
          <mxGeometry x="610" y="510" width="40" height="40" as="geometry" />
        </mxCell>
        <mxCell id="XpTZmv0MdNqDgMKop7gp-46" value="" style="rounded=0;whiteSpace=wrap;html=1;fillColor=#f8cecc;strokeColor=#b85450;" vertex="1" parent="1">
          <mxGeometry x="570" y="550" width="40" height="40" as="geometry" />
        </mxCell>
        <mxCell id="XpTZmv0MdNqDgMKop7gp-47" value="" style="rounded=0;whiteSpace=wrap;html=1;fillColor=#f8cecc;strokeColor=#b85450;" vertex="1" parent="1">
          <mxGeometry x="650" y="550" width="40" height="40" as="geometry" />
        </mxCell>
        <mxCell id="XpTZmv0MdNqDgMKop7gp-48" value="" style="rounded=0;whiteSpace=wrap;html=1;fillColor=#f8cecc;strokeColor=#b85450;" vertex="1" parent="1">
          <mxGeometry x="610" y="550" width="40" height="40" as="geometry" />
        </mxCell>
        <mxCell id="XpTZmv0MdNqDgMKop7gp-49" value="" style="rounded=0;whiteSpace=wrap;html=1;fillColor=#f8cecc;strokeColor=#b85450;" vertex="1" parent="1">
          <mxGeometry x="570" y="590" width="40" height="40" as="geometry" />
        </mxCell>
        <mxCell id="XpTZmv0MdNqDgMKop7gp-50" value="" style="rounded=0;whiteSpace=wrap;html=1;fillColor=#f8cecc;strokeColor=#b85450;" vertex="1" parent="1">
          <mxGeometry x="650" y="590" width="40" height="40" as="geometry" />
        </mxCell>
        <mxCell id="XpTZmv0MdNqDgMKop7gp-51" value="" style="rounded=0;whiteSpace=wrap;html=1;fillColor=#f8cecc;strokeColor=#b85450;" vertex="1" parent="1">
          <mxGeometry x="610" y="590" width="40" height="40" as="geometry" />
        </mxCell>
        <mxCell id="XpTZmv0MdNqDgMKop7gp-52" value="" style="rounded=0;whiteSpace=wrap;html=1;fillColor=#f8cecc;strokeColor=#b85450;" vertex="1" parent="1">
          <mxGeometry x="330" y="520" width="40" height="40" as="geometry" />
        </mxCell>
        <mxCell id="XpTZmv0MdNqDgMKop7gp-53" value="" style="rounded=0;whiteSpace=wrap;html=1;fillColor=#f8cecc;strokeColor=#b85450;" vertex="1" parent="1">
          <mxGeometry x="410" y="520" width="40" height="40" as="geometry" />
        </mxCell>
        <mxCell id="XpTZmv0MdNqDgMKop7gp-54" value="" style="rounded=0;whiteSpace=wrap;html=1;fillColor=#f8cecc;strokeColor=#b85450;" vertex="1" parent="1">
          <mxGeometry x="370" y="520" width="40" height="40" as="geometry" />
        </mxCell>
        <mxCell id="XpTZmv0MdNqDgMKop7gp-55" value="" style="rounded=0;whiteSpace=wrap;html=1;fillColor=#f8cecc;strokeColor=#b85450;" vertex="1" parent="1">
          <mxGeometry x="330" y="560" width="40" height="40" as="geometry" />
        </mxCell>
        <mxCell id="XpTZmv0MdNqDgMKop7gp-56" value="" style="rounded=0;whiteSpace=wrap;html=1;fillColor=#f8cecc;strokeColor=#b85450;" vertex="1" parent="1">
          <mxGeometry x="410" y="560" width="40" height="40" as="geometry" />
        </mxCell>
        <mxCell id="XpTZmv0MdNqDgMKop7gp-57" value="" style="rounded=0;whiteSpace=wrap;html=1;fillColor=#f8cecc;strokeColor=#b85450;" vertex="1" parent="1">
          <mxGeometry x="370" y="560" width="40" height="40" as="geometry" />
        </mxCell>
        <mxCell id="XpTZmv0MdNqDgMKop7gp-58" value="" style="rounded=0;whiteSpace=wrap;html=1;fillColor=#f8cecc;strokeColor=#b85450;" vertex="1" parent="1">
          <mxGeometry x="330" y="600" width="40" height="40" as="geometry" />
        </mxCell>
        <mxCell id="XpTZmv0MdNqDgMKop7gp-59" value="" style="rounded=0;whiteSpace=wrap;html=1;fillColor=#f8cecc;strokeColor=#b85450;" vertex="1" parent="1">
          <mxGeometry x="410" y="600" width="40" height="40" as="geometry" />
        </mxCell>
        <mxCell id="XpTZmv0MdNqDgMKop7gp-60" value="" style="rounded=0;whiteSpace=wrap;html=1;fillColor=#f8cecc;strokeColor=#b85450;" vertex="1" parent="1">
          <mxGeometry x="370" y="600" width="40" height="40" as="geometry" />
        </mxCell>
        <mxCell id="XpTZmv0MdNqDgMKop7gp-73" value="" style="rounded=0;whiteSpace=wrap;html=1;fillColor=#fff2cc;strokeColor=#d6b656;" vertex="1" parent="1">
          <mxGeometry x="360" y="722.5" width="120" height="110" as="geometry" />
        </mxCell>
        <mxCell id="XpTZmv0MdNqDgMKop7gp-74" value="" style="rounded=0;whiteSpace=wrap;html=1;fillColor=#d5e8d4;strokeColor=#82b366;" vertex="1" parent="1">
          <mxGeometry x="350" y="727.5" width="120" height="115" as="geometry" />
        </mxCell>
        <mxCell id="XpTZmv0MdNqDgMKop7gp-75" value="" style="rounded=0;whiteSpace=wrap;html=1;fillColor=#dae8fc;strokeColor=#6c8ebf;" vertex="1" parent="1">
          <mxGeometry x="340" y="732.5" width="120" height="120" as="geometry" />
        </mxCell>
        <mxCell id="XpTZmv0MdNqDgMKop7gp-76" value="" style="rounded=0;whiteSpace=wrap;html=1;fillColor=#f8cecc;strokeColor=#b85450;" vertex="1" parent="1">
          <mxGeometry x="330" y="737.5" width="40" height="40" as="geometry" />
        </mxCell>
        <mxCell id="XpTZmv0MdNqDgMKop7gp-77" value="" style="rounded=0;whiteSpace=wrap;html=1;fillColor=#f8cecc;strokeColor=#b85450;" vertex="1" parent="1">
          <mxGeometry x="410" y="737.5" width="40" height="40" as="geometry" />
        </mxCell>
        <mxCell id="XpTZmv0MdNqDgMKop7gp-78" value="" style="rounded=0;whiteSpace=wrap;html=1;fillColor=#f8cecc;strokeColor=#b85450;" vertex="1" parent="1">
          <mxGeometry x="370" y="737.5" width="40" height="40" as="geometry" />
        </mxCell>
        <mxCell id="XpTZmv0MdNqDgMKop7gp-79" value="" style="rounded=0;whiteSpace=wrap;html=1;fillColor=#f8cecc;strokeColor=#b85450;" vertex="1" parent="1">
          <mxGeometry x="330" y="777.5" width="40" height="40" as="geometry" />
        </mxCell>
        <mxCell id="XpTZmv0MdNqDgMKop7gp-80" value="" style="rounded=0;whiteSpace=wrap;html=1;fillColor=#f8cecc;strokeColor=#b85450;" vertex="1" parent="1">
          <mxGeometry x="410" y="777.5" width="40" height="40" as="geometry" />
        </mxCell>
        <mxCell id="XpTZmv0MdNqDgMKop7gp-81" value="" style="rounded=0;whiteSpace=wrap;html=1;fillColor=#f8cecc;strokeColor=#b85450;" vertex="1" parent="1">
          <mxGeometry x="370" y="777.5" width="40" height="40" as="geometry" />
        </mxCell>
        <mxCell id="XpTZmv0MdNqDgMKop7gp-82" value="" style="rounded=0;whiteSpace=wrap;html=1;fillColor=#f8cecc;strokeColor=#b85450;" vertex="1" parent="1">
          <mxGeometry x="330" y="817.5" width="40" height="40" as="geometry" />
        </mxCell>
        <mxCell id="XpTZmv0MdNqDgMKop7gp-83" value="" style="rounded=0;whiteSpace=wrap;html=1;fillColor=#f8cecc;strokeColor=#b85450;" vertex="1" parent="1">
          <mxGeometry x="410" y="817.5" width="40" height="40" as="geometry" />
        </mxCell>
        <mxCell id="XpTZmv0MdNqDgMKop7gp-84" value="" style="rounded=0;whiteSpace=wrap;html=1;fillColor=#f8cecc;strokeColor=#b85450;" vertex="1" parent="1">
          <mxGeometry x="370" y="817.5" width="40" height="40" as="geometry" />
        </mxCell>
        <mxCell id="XpTZmv0MdNqDgMKop7gp-85" value="" style="rounded=0;whiteSpace=wrap;html=1;fillColor=#fff2cc;strokeColor=#d6b656;" vertex="1" parent="1">
          <mxGeometry x="360" y="965" width="120" height="110" as="geometry" />
        </mxCell>
        <mxCell id="XpTZmv0MdNqDgMKop7gp-86" value="" style="rounded=0;whiteSpace=wrap;html=1;fillColor=#d5e8d4;strokeColor=#82b366;" vertex="1" parent="1">
          <mxGeometry x="350" y="970" width="120" height="115" as="geometry" />
        </mxCell>
        <mxCell id="XpTZmv0MdNqDgMKop7gp-87" value="" style="rounded=0;whiteSpace=wrap;html=1;fillColor=#dae8fc;strokeColor=#6c8ebf;" vertex="1" parent="1">
          <mxGeometry x="340" y="975" width="120" height="120" as="geometry" />
        </mxCell>
        <mxCell id="XpTZmv0MdNqDgMKop7gp-88" value="" style="rounded=0;whiteSpace=wrap;html=1;fillColor=#f8cecc;strokeColor=#b85450;" vertex="1" parent="1">
          <mxGeometry x="330" y="980" width="40" height="40" as="geometry" />
        </mxCell>
        <mxCell id="XpTZmv0MdNqDgMKop7gp-89" value="" style="rounded=0;whiteSpace=wrap;html=1;fillColor=#f8cecc;strokeColor=#b85450;" vertex="1" parent="1">
          <mxGeometry x="410" y="980" width="40" height="40" as="geometry" />
        </mxCell>
        <mxCell id="XpTZmv0MdNqDgMKop7gp-90" value="" style="rounded=0;whiteSpace=wrap;html=1;fillColor=#f8cecc;strokeColor=#b85450;" vertex="1" parent="1">
          <mxGeometry x="370" y="980" width="40" height="40" as="geometry" />
        </mxCell>
        <mxCell id="XpTZmv0MdNqDgMKop7gp-91" value="" style="rounded=0;whiteSpace=wrap;html=1;fillColor=#f8cecc;strokeColor=#b85450;" vertex="1" parent="1">
          <mxGeometry x="330" y="1020" width="40" height="40" as="geometry" />
        </mxCell>
        <mxCell id="XpTZmv0MdNqDgMKop7gp-92" value="" style="rounded=0;whiteSpace=wrap;html=1;fillColor=#f8cecc;strokeColor=#b85450;" vertex="1" parent="1">
          <mxGeometry x="410" y="1020" width="40" height="40" as="geometry" />
        </mxCell>
        <mxCell id="XpTZmv0MdNqDgMKop7gp-93" value="" style="rounded=0;whiteSpace=wrap;html=1;fillColor=#f8cecc;strokeColor=#b85450;" vertex="1" parent="1">
          <mxGeometry x="370" y="1020" width="40" height="40" as="geometry" />
        </mxCell>
        <mxCell id="XpTZmv0MdNqDgMKop7gp-94" value="" style="rounded=0;whiteSpace=wrap;html=1;fillColor=#f8cecc;strokeColor=#b85450;" vertex="1" parent="1">
          <mxGeometry x="330" y="1060" width="40" height="40" as="geometry" />
        </mxCell>
        <mxCell id="XpTZmv0MdNqDgMKop7gp-95" value="" style="rounded=0;whiteSpace=wrap;html=1;fillColor=#f8cecc;strokeColor=#b85450;" vertex="1" parent="1">
          <mxGeometry x="410" y="1060" width="40" height="40" as="geometry" />
        </mxCell>
        <mxCell id="XpTZmv0MdNqDgMKop7gp-96" value="" style="rounded=0;whiteSpace=wrap;html=1;fillColor=#f8cecc;strokeColor=#b85450;" vertex="1" parent="1">
          <mxGeometry x="370" y="1060" width="40" height="40" as="geometry" />
        </mxCell>
        <mxCell id="XpTZmv0MdNqDgMKop7gp-97" value="" style="rounded=0;whiteSpace=wrap;html=1;fillColor=#f8cecc;strokeColor=#b85450;" vertex="1" parent="1">
          <mxGeometry x="740" y="510" width="40" height="40" as="geometry" />
        </mxCell>
        <mxCell id="XpTZmv0MdNqDgMKop7gp-98" value="" style="rounded=0;whiteSpace=wrap;html=1;fillColor=#f8cecc;strokeColor=#b85450;" vertex="1" parent="1">
          <mxGeometry x="820" y="510" width="40" height="40" as="geometry" />
        </mxCell>
        <mxCell id="XpTZmv0MdNqDgMKop7gp-99" value="" style="rounded=0;whiteSpace=wrap;html=1;fillColor=#f8cecc;strokeColor=#b85450;" vertex="1" parent="1">
          <mxGeometry x="780" y="510" width="40" height="40" as="geometry" />
        </mxCell>
        <mxCell id="XpTZmv0MdNqDgMKop7gp-100" value="" style="rounded=0;whiteSpace=wrap;html=1;fillColor=#f8cecc;strokeColor=#b85450;" vertex="1" parent="1">
          <mxGeometry x="740" y="550" width="40" height="40" as="geometry" />
        </mxCell>
        <mxCell id="XpTZmv0MdNqDgMKop7gp-101" value="" style="rounded=0;whiteSpace=wrap;html=1;fillColor=#f8cecc;strokeColor=#b85450;" vertex="1" parent="1">
          <mxGeometry x="820" y="550" width="40" height="40" as="geometry" />
        </mxCell>
        <mxCell id="XpTZmv0MdNqDgMKop7gp-102" value="" style="rounded=0;whiteSpace=wrap;html=1;fillColor=#f8cecc;strokeColor=#b85450;" vertex="1" parent="1">
          <mxGeometry x="780" y="550" width="40" height="40" as="geometry" />
        </mxCell>
        <mxCell id="XpTZmv0MdNqDgMKop7gp-103" value="" style="rounded=0;whiteSpace=wrap;html=1;fillColor=#f8cecc;strokeColor=#b85450;" vertex="1" parent="1">
          <mxGeometry x="740" y="590" width="40" height="40" as="geometry" />
        </mxCell>
        <mxCell id="XpTZmv0MdNqDgMKop7gp-104" value="" style="rounded=0;whiteSpace=wrap;html=1;fillColor=#f8cecc;strokeColor=#b85450;" vertex="1" parent="1">
          <mxGeometry x="820" y="590" width="40" height="40" as="geometry" />
        </mxCell>
        <mxCell id="XpTZmv0MdNqDgMKop7gp-105" value="" style="rounded=0;whiteSpace=wrap;html=1;fillColor=#f8cecc;strokeColor=#b85450;" vertex="1" parent="1">
          <mxGeometry x="780" y="590" width="40" height="40" as="geometry" />
        </mxCell>
        <mxCell id="XpTZmv0MdNqDgMKop7gp-115" value="" style="rounded=0;whiteSpace=wrap;html=1;fillColor=#f8cecc;strokeColor=#b85450;" vertex="1" parent="1">
          <mxGeometry x="1010" y="510" width="40" height="40" as="geometry" />
        </mxCell>
        <mxCell id="XpTZmv0MdNqDgMKop7gp-116" value="" style="rounded=0;whiteSpace=wrap;html=1;fillColor=#f8cecc;strokeColor=#b85450;" vertex="1" parent="1">
          <mxGeometry x="1090" y="510" width="40" height="40" as="geometry" />
        </mxCell>
        <mxCell id="XpTZmv0MdNqDgMKop7gp-117" value="" style="rounded=0;whiteSpace=wrap;html=1;fillColor=#f8cecc;strokeColor=#b85450;" vertex="1" parent="1">
          <mxGeometry x="1050" y="510" width="40" height="40" as="geometry" />
        </mxCell>
        <mxCell id="XpTZmv0MdNqDgMKop7gp-118" value="" style="rounded=0;whiteSpace=wrap;html=1;fillColor=#f8cecc;strokeColor=#b85450;" vertex="1" parent="1">
          <mxGeometry x="1010" y="550" width="40" height="40" as="geometry" />
        </mxCell>
        <mxCell id="XpTZmv0MdNqDgMKop7gp-119" value="" style="rounded=0;whiteSpace=wrap;html=1;fillColor=#f8cecc;strokeColor=#b85450;" vertex="1" parent="1">
          <mxGeometry x="1090" y="550" width="40" height="40" as="geometry" />
        </mxCell>
        <mxCell id="XpTZmv0MdNqDgMKop7gp-120" value="" style="rounded=0;whiteSpace=wrap;html=1;fillColor=#f8cecc;strokeColor=#b85450;" vertex="1" parent="1">
          <mxGeometry x="1050" y="550" width="40" height="40" as="geometry" />
        </mxCell>
        <mxCell id="XpTZmv0MdNqDgMKop7gp-121" value="" style="rounded=0;whiteSpace=wrap;html=1;fillColor=#f8cecc;strokeColor=#b85450;" vertex="1" parent="1">
          <mxGeometry x="1010" y="590" width="40" height="40" as="geometry" />
        </mxCell>
        <mxCell id="XpTZmv0MdNqDgMKop7gp-122" value="" style="rounded=0;whiteSpace=wrap;html=1;fillColor=#f8cecc;strokeColor=#b85450;" vertex="1" parent="1">
          <mxGeometry x="1090" y="590" width="40" height="40" as="geometry" />
        </mxCell>
        <mxCell id="XpTZmv0MdNqDgMKop7gp-123" value="" style="rounded=0;whiteSpace=wrap;html=1;fillColor=#f8cecc;strokeColor=#b85450;" vertex="1" parent="1">
          <mxGeometry x="1050" y="590" width="40" height="40" as="geometry" />
        </mxCell>
        <mxCell id="XpTZmv0MdNqDgMKop7gp-124" value="" style="rounded=0;whiteSpace=wrap;html=1;fillColor=#b1ddf0;strokeColor=#10739e;" vertex="1" parent="1">
          <mxGeometry x="570" y="660" width="40" height="40" as="geometry" />
        </mxCell>
        <mxCell id="XpTZmv0MdNqDgMKop7gp-126" value="" style="rounded=0;whiteSpace=wrap;html=1;fillColor=#b1ddf0;strokeColor=#10739e;" vertex="1" parent="1">
          <mxGeometry x="650" y="660" width="40" height="40" as="geometry" />
        </mxCell>
        <mxCell id="XpTZmv0MdNqDgMKop7gp-127" value="" style="rounded=0;whiteSpace=wrap;html=1;fillColor=#b1ddf0;strokeColor=#10739e;" vertex="1" parent="1">
          <mxGeometry x="610" y="660" width="40" height="40" as="geometry" />
        </mxCell>
        <mxCell id="XpTZmv0MdNqDgMKop7gp-128" value="" style="rounded=0;whiteSpace=wrap;html=1;fillColor=#b1ddf0;strokeColor=#10739e;" vertex="1" parent="1">
          <mxGeometry x="570" y="700" width="40" height="40" as="geometry" />
        </mxCell>
        <mxCell id="XpTZmv0MdNqDgMKop7gp-129" value="" style="rounded=0;whiteSpace=wrap;html=1;fillColor=#b1ddf0;strokeColor=#10739e;" vertex="1" parent="1">
          <mxGeometry x="650" y="700" width="40" height="40" as="geometry" />
        </mxCell>
        <mxCell id="XpTZmv0MdNqDgMKop7gp-130" value="" style="rounded=0;whiteSpace=wrap;html=1;fillColor=#b1ddf0;strokeColor=#10739e;" vertex="1" parent="1">
          <mxGeometry x="610" y="700" width="40" height="40" as="geometry" />
        </mxCell>
        <mxCell id="XpTZmv0MdNqDgMKop7gp-131" value="" style="rounded=0;whiteSpace=wrap;html=1;fillColor=#b1ddf0;strokeColor=#10739e;" vertex="1" parent="1">
          <mxGeometry x="570" y="740" width="40" height="40" as="geometry" />
        </mxCell>
        <mxCell id="XpTZmv0MdNqDgMKop7gp-132" value="" style="rounded=0;whiteSpace=wrap;html=1;fillColor=#b1ddf0;strokeColor=#10739e;" vertex="1" parent="1">
          <mxGeometry x="650" y="740" width="40" height="40" as="geometry" />
        </mxCell>
        <mxCell id="XpTZmv0MdNqDgMKop7gp-133" value="" style="rounded=0;whiteSpace=wrap;html=1;fillColor=#b1ddf0;strokeColor=#10739e;" vertex="1" parent="1">
          <mxGeometry x="610" y="740" width="40" height="40" as="geometry" />
        </mxCell>
        <mxCell id="XpTZmv0MdNqDgMKop7gp-134" value="" style="rounded=0;whiteSpace=wrap;html=1;fillColor=#b1ddf0;strokeColor=#10739e;" vertex="1" parent="1">
          <mxGeometry x="740" y="660" width="40" height="40" as="geometry" />
        </mxCell>
        <mxCell id="XpTZmv0MdNqDgMKop7gp-135" value="" style="rounded=0;whiteSpace=wrap;html=1;fillColor=#b1ddf0;strokeColor=#10739e;" vertex="1" parent="1">
          <mxGeometry x="820" y="660" width="40" height="40" as="geometry" />
        </mxCell>
        <mxCell id="XpTZmv0MdNqDgMKop7gp-136" value="" style="rounded=0;whiteSpace=wrap;html=1;fillColor=#b1ddf0;strokeColor=#10739e;" vertex="1" parent="1">
          <mxGeometry x="780" y="660" width="40" height="40" as="geometry" />
        </mxCell>
        <mxCell id="XpTZmv0MdNqDgMKop7gp-137" value="" style="rounded=0;whiteSpace=wrap;html=1;fillColor=#b1ddf0;strokeColor=#10739e;" vertex="1" parent="1">
          <mxGeometry x="740" y="700" width="40" height="40" as="geometry" />
        </mxCell>
        <mxCell id="XpTZmv0MdNqDgMKop7gp-138" value="" style="rounded=0;whiteSpace=wrap;html=1;fillColor=#b1ddf0;strokeColor=#10739e;" vertex="1" parent="1">
          <mxGeometry x="820" y="700" width="40" height="40" as="geometry" />
        </mxCell>
        <mxCell id="XpTZmv0MdNqDgMKop7gp-139" value="" style="rounded=0;whiteSpace=wrap;html=1;fillColor=#b1ddf0;strokeColor=#10739e;" vertex="1" parent="1">
          <mxGeometry x="780" y="700" width="40" height="40" as="geometry" />
        </mxCell>
        <mxCell id="XpTZmv0MdNqDgMKop7gp-140" value="" style="rounded=0;whiteSpace=wrap;html=1;fillColor=#b1ddf0;strokeColor=#10739e;" vertex="1" parent="1">
          <mxGeometry x="740" y="740" width="40" height="40" as="geometry" />
        </mxCell>
        <mxCell id="XpTZmv0MdNqDgMKop7gp-141" value="" style="rounded=0;whiteSpace=wrap;html=1;fillColor=#b1ddf0;strokeColor=#10739e;" vertex="1" parent="1">
          <mxGeometry x="820" y="740" width="40" height="40" as="geometry" />
        </mxCell>
        <mxCell id="XpTZmv0MdNqDgMKop7gp-142" value="" style="rounded=0;whiteSpace=wrap;html=1;fillColor=#b1ddf0;strokeColor=#10739e;" vertex="1" parent="1">
          <mxGeometry x="780" y="740" width="40" height="40" as="geometry" />
        </mxCell>
        <mxCell id="XpTZmv0MdNqDgMKop7gp-143" value="" style="rounded=0;whiteSpace=wrap;html=1;fillColor=#b1ddf0;strokeColor=#10739e;" vertex="1" parent="1">
          <mxGeometry x="1010" y="660" width="40" height="40" as="geometry" />
        </mxCell>
        <mxCell id="XpTZmv0MdNqDgMKop7gp-144" value="" style="rounded=0;whiteSpace=wrap;html=1;fillColor=#b1ddf0;strokeColor=#10739e;" vertex="1" parent="1">
          <mxGeometry x="1090" y="660" width="40" height="40" as="geometry" />
        </mxCell>
        <mxCell id="XpTZmv0MdNqDgMKop7gp-145" value="" style="rounded=0;whiteSpace=wrap;html=1;fillColor=#b1ddf0;strokeColor=#10739e;" vertex="1" parent="1">
          <mxGeometry x="1050" y="660" width="40" height="40" as="geometry" />
        </mxCell>
        <mxCell id="XpTZmv0MdNqDgMKop7gp-146" value="" style="rounded=0;whiteSpace=wrap;html=1;fillColor=#b1ddf0;strokeColor=#10739e;" vertex="1" parent="1">
          <mxGeometry x="1010" y="700" width="40" height="40" as="geometry" />
        </mxCell>
        <mxCell id="XpTZmv0MdNqDgMKop7gp-147" value="" style="rounded=0;whiteSpace=wrap;html=1;fillColor=#b1ddf0;strokeColor=#10739e;" vertex="1" parent="1">
          <mxGeometry x="1090" y="700" width="40" height="40" as="geometry" />
        </mxCell>
        <mxCell id="XpTZmv0MdNqDgMKop7gp-148" value="" style="rounded=0;whiteSpace=wrap;html=1;fillColor=#b1ddf0;strokeColor=#10739e;" vertex="1" parent="1">
          <mxGeometry x="1050" y="700" width="40" height="40" as="geometry" />
        </mxCell>
        <mxCell id="XpTZmv0MdNqDgMKop7gp-149" value="" style="rounded=0;whiteSpace=wrap;html=1;fillColor=#b1ddf0;strokeColor=#10739e;" vertex="1" parent="1">
          <mxGeometry x="1010" y="740" width="40" height="40" as="geometry" />
        </mxCell>
        <mxCell id="XpTZmv0MdNqDgMKop7gp-150" value="" style="rounded=0;whiteSpace=wrap;html=1;fillColor=#b1ddf0;strokeColor=#10739e;" vertex="1" parent="1">
          <mxGeometry x="1090" y="740" width="40" height="40" as="geometry" />
        </mxCell>
        <mxCell id="XpTZmv0MdNqDgMKop7gp-151" value="" style="rounded=0;whiteSpace=wrap;html=1;fillColor=#b1ddf0;strokeColor=#10739e;" vertex="1" parent="1">
          <mxGeometry x="1050" y="740" width="40" height="40" as="geometry" />
        </mxCell>
        <mxCell id="XpTZmv0MdNqDgMKop7gp-152" value="&lt;font style=&quot;font-size: 36px;&quot;&gt;...&lt;/font&gt;" style="text;html=1;align=center;verticalAlign=middle;resizable=0;points=[];autosize=1;strokeColor=none;fillColor=none;fontSize=24;" vertex="1" parent="1">
          <mxGeometry x="910" y="690" width="50" height="60" as="geometry" />
        </mxCell>
        <mxCell id="XpTZmv0MdNqDgMKop7gp-153" value="" style="rounded=0;whiteSpace=wrap;html=1;fillColor=#d5e8d4;strokeColor=#82b366;" vertex="1" parent="1">
          <mxGeometry x="570" y="817.5" width="40" height="40" as="geometry" />
        </mxCell>
        <mxCell id="XpTZmv0MdNqDgMKop7gp-154" value="" style="rounded=0;whiteSpace=wrap;html=1;fillColor=#d5e8d4;strokeColor=#82b366;" vertex="1" parent="1">
          <mxGeometry x="650" y="817.5" width="40" height="40" as="geometry" />
        </mxCell>
        <mxCell id="XpTZmv0MdNqDgMKop7gp-155" value="" style="rounded=0;whiteSpace=wrap;html=1;fillColor=#d5e8d4;strokeColor=#82b366;" vertex="1" parent="1">
          <mxGeometry x="610" y="817.5" width="40" height="40" as="geometry" />
        </mxCell>
        <mxCell id="XpTZmv0MdNqDgMKop7gp-156" value="" style="rounded=0;whiteSpace=wrap;html=1;fillColor=#d5e8d4;strokeColor=#82b366;" vertex="1" parent="1">
          <mxGeometry x="570" y="857.5" width="40" height="40" as="geometry" />
        </mxCell>
        <mxCell id="XpTZmv0MdNqDgMKop7gp-157" value="" style="rounded=0;whiteSpace=wrap;html=1;fillColor=#d5e8d4;strokeColor=#82b366;" vertex="1" parent="1">
          <mxGeometry x="650" y="857.5" width="40" height="40" as="geometry" />
        </mxCell>
        <mxCell id="XpTZmv0MdNqDgMKop7gp-158" value="" style="rounded=0;whiteSpace=wrap;html=1;fillColor=#d5e8d4;strokeColor=#82b366;" vertex="1" parent="1">
          <mxGeometry x="610" y="857.5" width="40" height="40" as="geometry" />
        </mxCell>
        <mxCell id="XpTZmv0MdNqDgMKop7gp-159" value="" style="rounded=0;whiteSpace=wrap;html=1;fillColor=#d5e8d4;strokeColor=#82b366;" vertex="1" parent="1">
          <mxGeometry x="570" y="897.5" width="40" height="40" as="geometry" />
        </mxCell>
        <mxCell id="XpTZmv0MdNqDgMKop7gp-160" value="" style="rounded=0;whiteSpace=wrap;html=1;fillColor=#d5e8d4;strokeColor=#82b366;" vertex="1" parent="1">
          <mxGeometry x="650" y="897.5" width="40" height="40" as="geometry" />
        </mxCell>
        <mxCell id="XpTZmv0MdNqDgMKop7gp-161" value="" style="rounded=0;whiteSpace=wrap;html=1;fillColor=#d5e8d4;strokeColor=#82b366;" vertex="1" parent="1">
          <mxGeometry x="610" y="897.5" width="40" height="40" as="geometry" />
        </mxCell>
        <mxCell id="XpTZmv0MdNqDgMKop7gp-162" value="" style="rounded=0;whiteSpace=wrap;html=1;fillColor=#d5e8d4;strokeColor=#82b366;" vertex="1" parent="1">
          <mxGeometry x="740" y="817.5" width="40" height="40" as="geometry" />
        </mxCell>
        <mxCell id="XpTZmv0MdNqDgMKop7gp-163" value="" style="rounded=0;whiteSpace=wrap;html=1;fillColor=#d5e8d4;strokeColor=#82b366;" vertex="1" parent="1">
          <mxGeometry x="820" y="817.5" width="40" height="40" as="geometry" />
        </mxCell>
        <mxCell id="XpTZmv0MdNqDgMKop7gp-164" value="" style="rounded=0;whiteSpace=wrap;html=1;fillColor=#d5e8d4;strokeColor=#82b366;" vertex="1" parent="1">
          <mxGeometry x="780" y="817.5" width="40" height="40" as="geometry" />
        </mxCell>
        <mxCell id="XpTZmv0MdNqDgMKop7gp-165" value="" style="rounded=0;whiteSpace=wrap;html=1;fillColor=#d5e8d4;strokeColor=#82b366;" vertex="1" parent="1">
          <mxGeometry x="740" y="857.5" width="40" height="40" as="geometry" />
        </mxCell>
        <mxCell id="XpTZmv0MdNqDgMKop7gp-166" value="" style="rounded=0;whiteSpace=wrap;html=1;fillColor=#d5e8d4;strokeColor=#82b366;" vertex="1" parent="1">
          <mxGeometry x="820" y="857.5" width="40" height="40" as="geometry" />
        </mxCell>
        <mxCell id="XpTZmv0MdNqDgMKop7gp-167" value="" style="rounded=0;whiteSpace=wrap;html=1;fillColor=#d5e8d4;strokeColor=#82b366;" vertex="1" parent="1">
          <mxGeometry x="780" y="857.5" width="40" height="40" as="geometry" />
        </mxCell>
        <mxCell id="XpTZmv0MdNqDgMKop7gp-168" value="" style="rounded=0;whiteSpace=wrap;html=1;fillColor=#d5e8d4;strokeColor=#82b366;" vertex="1" parent="1">
          <mxGeometry x="740" y="897.5" width="40" height="40" as="geometry" />
        </mxCell>
        <mxCell id="XpTZmv0MdNqDgMKop7gp-169" value="" style="rounded=0;whiteSpace=wrap;html=1;fillColor=#d5e8d4;strokeColor=#82b366;" vertex="1" parent="1">
          <mxGeometry x="820" y="897.5" width="40" height="40" as="geometry" />
        </mxCell>
        <mxCell id="XpTZmv0MdNqDgMKop7gp-170" value="" style="rounded=0;whiteSpace=wrap;html=1;fillColor=#d5e8d4;strokeColor=#82b366;" vertex="1" parent="1">
          <mxGeometry x="780" y="897.5" width="40" height="40" as="geometry" />
        </mxCell>
        <mxCell id="XpTZmv0MdNqDgMKop7gp-171" value="" style="rounded=0;whiteSpace=wrap;html=1;fillColor=#d5e8d4;strokeColor=#82b366;" vertex="1" parent="1">
          <mxGeometry x="1010" y="817.5" width="40" height="40" as="geometry" />
        </mxCell>
        <mxCell id="XpTZmv0MdNqDgMKop7gp-172" value="" style="rounded=0;whiteSpace=wrap;html=1;fillColor=#d5e8d4;strokeColor=#82b366;" vertex="1" parent="1">
          <mxGeometry x="1090" y="817.5" width="40" height="40" as="geometry" />
        </mxCell>
        <mxCell id="XpTZmv0MdNqDgMKop7gp-173" value="" style="rounded=0;whiteSpace=wrap;html=1;fillColor=#d5e8d4;strokeColor=#82b366;" vertex="1" parent="1">
          <mxGeometry x="1050" y="817.5" width="40" height="40" as="geometry" />
        </mxCell>
        <mxCell id="XpTZmv0MdNqDgMKop7gp-174" value="" style="rounded=0;whiteSpace=wrap;html=1;fillColor=#d5e8d4;strokeColor=#82b366;" vertex="1" parent="1">
          <mxGeometry x="1010" y="857.5" width="40" height="40" as="geometry" />
        </mxCell>
        <mxCell id="XpTZmv0MdNqDgMKop7gp-175" value="" style="rounded=0;whiteSpace=wrap;html=1;fillColor=#d5e8d4;strokeColor=#82b366;" vertex="1" parent="1">
          <mxGeometry x="1090" y="857.5" width="40" height="40" as="geometry" />
        </mxCell>
        <mxCell id="XpTZmv0MdNqDgMKop7gp-176" value="" style="rounded=0;whiteSpace=wrap;html=1;fillColor=#d5e8d4;strokeColor=#82b366;" vertex="1" parent="1">
          <mxGeometry x="1050" y="857.5" width="40" height="40" as="geometry" />
        </mxCell>
        <mxCell id="XpTZmv0MdNqDgMKop7gp-177" value="" style="rounded=0;whiteSpace=wrap;html=1;fillColor=#d5e8d4;strokeColor=#82b366;" vertex="1" parent="1">
          <mxGeometry x="1010" y="897.5" width="40" height="40" as="geometry" />
        </mxCell>
        <mxCell id="XpTZmv0MdNqDgMKop7gp-178" value="" style="rounded=0;whiteSpace=wrap;html=1;fillColor=#d5e8d4;strokeColor=#82b366;" vertex="1" parent="1">
          <mxGeometry x="1090" y="897.5" width="40" height="40" as="geometry" />
        </mxCell>
        <mxCell id="XpTZmv0MdNqDgMKop7gp-179" value="" style="rounded=0;whiteSpace=wrap;html=1;fillColor=#d5e8d4;strokeColor=#82b366;" vertex="1" parent="1">
          <mxGeometry x="1050" y="897.5" width="40" height="40" as="geometry" />
        </mxCell>
        <mxCell id="XpTZmv0MdNqDgMKop7gp-180" value="&lt;font style=&quot;font-size: 36px;&quot;&gt;...&lt;/font&gt;" style="text;html=1;align=center;verticalAlign=middle;resizable=0;points=[];autosize=1;strokeColor=none;fillColor=none;fontSize=24;" vertex="1" parent="1">
          <mxGeometry x="910" y="847.5" width="50" height="60" as="geometry" />
        </mxCell>
        <mxCell id="XpTZmv0MdNqDgMKop7gp-181" value="" style="rounded=0;whiteSpace=wrap;html=1;fillColor=#fff2cc;strokeColor=#d6b656;" vertex="1" parent="1">
          <mxGeometry x="570" y="975" width="40" height="40" as="geometry" />
        </mxCell>
        <mxCell id="XpTZmv0MdNqDgMKop7gp-182" value="" style="rounded=0;whiteSpace=wrap;html=1;fillColor=#fff2cc;strokeColor=#d6b656;" vertex="1" parent="1">
          <mxGeometry x="650" y="975" width="40" height="40" as="geometry" />
        </mxCell>
        <mxCell id="XpTZmv0MdNqDgMKop7gp-183" value="" style="rounded=0;whiteSpace=wrap;html=1;fillColor=#fff2cc;strokeColor=#d6b656;" vertex="1" parent="1">
          <mxGeometry x="610" y="975" width="40" height="40" as="geometry" />
        </mxCell>
        <mxCell id="XpTZmv0MdNqDgMKop7gp-184" value="" style="rounded=0;whiteSpace=wrap;html=1;fillColor=#fff2cc;strokeColor=#d6b656;" vertex="1" parent="1">
          <mxGeometry x="570" y="1015" width="40" height="40" as="geometry" />
        </mxCell>
        <mxCell id="XpTZmv0MdNqDgMKop7gp-185" value="" style="rounded=0;whiteSpace=wrap;html=1;fillColor=#fff2cc;strokeColor=#d6b656;" vertex="1" parent="1">
          <mxGeometry x="650" y="1015" width="40" height="40" as="geometry" />
        </mxCell>
        <mxCell id="XpTZmv0MdNqDgMKop7gp-186" value="" style="rounded=0;whiteSpace=wrap;html=1;fillColor=#fff2cc;strokeColor=#d6b656;" vertex="1" parent="1">
          <mxGeometry x="610" y="1015" width="40" height="40" as="geometry" />
        </mxCell>
        <mxCell id="XpTZmv0MdNqDgMKop7gp-187" value="" style="rounded=0;whiteSpace=wrap;html=1;fillColor=#fff2cc;strokeColor=#d6b656;" vertex="1" parent="1">
          <mxGeometry x="570" y="1055" width="40" height="40" as="geometry" />
        </mxCell>
        <mxCell id="XpTZmv0MdNqDgMKop7gp-188" value="" style="rounded=0;whiteSpace=wrap;html=1;fillColor=#fff2cc;strokeColor=#d6b656;" vertex="1" parent="1">
          <mxGeometry x="650" y="1055" width="40" height="40" as="geometry" />
        </mxCell>
        <mxCell id="XpTZmv0MdNqDgMKop7gp-189" value="" style="rounded=0;whiteSpace=wrap;html=1;fillColor=#fff2cc;strokeColor=#d6b656;" vertex="1" parent="1">
          <mxGeometry x="610" y="1055" width="40" height="40" as="geometry" />
        </mxCell>
        <mxCell id="XpTZmv0MdNqDgMKop7gp-190" value="" style="rounded=0;whiteSpace=wrap;html=1;fillColor=#fff2cc;strokeColor=#d6b656;" vertex="1" parent="1">
          <mxGeometry x="740" y="975" width="40" height="40" as="geometry" />
        </mxCell>
        <mxCell id="XpTZmv0MdNqDgMKop7gp-191" value="" style="rounded=0;whiteSpace=wrap;html=1;fillColor=#fff2cc;strokeColor=#d6b656;" vertex="1" parent="1">
          <mxGeometry x="820" y="975" width="40" height="40" as="geometry" />
        </mxCell>
        <mxCell id="XpTZmv0MdNqDgMKop7gp-192" value="" style="rounded=0;whiteSpace=wrap;html=1;fillColor=#fff2cc;strokeColor=#d6b656;" vertex="1" parent="1">
          <mxGeometry x="780" y="975" width="40" height="40" as="geometry" />
        </mxCell>
        <mxCell id="XpTZmv0MdNqDgMKop7gp-193" value="" style="rounded=0;whiteSpace=wrap;html=1;fillColor=#fff2cc;strokeColor=#d6b656;" vertex="1" parent="1">
          <mxGeometry x="740" y="1015" width="40" height="40" as="geometry" />
        </mxCell>
        <mxCell id="XpTZmv0MdNqDgMKop7gp-194" value="" style="rounded=0;whiteSpace=wrap;html=1;fillColor=#fff2cc;strokeColor=#d6b656;" vertex="1" parent="1">
          <mxGeometry x="820" y="1015" width="40" height="40" as="geometry" />
        </mxCell>
        <mxCell id="XpTZmv0MdNqDgMKop7gp-195" value="" style="rounded=0;whiteSpace=wrap;html=1;fillColor=#fff2cc;strokeColor=#d6b656;" vertex="1" parent="1">
          <mxGeometry x="780" y="1015" width="40" height="40" as="geometry" />
        </mxCell>
        <mxCell id="XpTZmv0MdNqDgMKop7gp-196" value="" style="rounded=0;whiteSpace=wrap;html=1;fillColor=#fff2cc;strokeColor=#d6b656;" vertex="1" parent="1">
          <mxGeometry x="740" y="1055" width="40" height="40" as="geometry" />
        </mxCell>
        <mxCell id="XpTZmv0MdNqDgMKop7gp-197" value="" style="rounded=0;whiteSpace=wrap;html=1;fillColor=#fff2cc;strokeColor=#d6b656;" vertex="1" parent="1">
          <mxGeometry x="820" y="1055" width="40" height="40" as="geometry" />
        </mxCell>
        <mxCell id="XpTZmv0MdNqDgMKop7gp-198" value="" style="rounded=0;whiteSpace=wrap;html=1;fillColor=#fff2cc;strokeColor=#d6b656;" vertex="1" parent="1">
          <mxGeometry x="780" y="1055" width="40" height="40" as="geometry" />
        </mxCell>
        <mxCell id="XpTZmv0MdNqDgMKop7gp-199" value="" style="rounded=0;whiteSpace=wrap;html=1;fillColor=#fff2cc;strokeColor=#d6b656;" vertex="1" parent="1">
          <mxGeometry x="1010" y="975" width="40" height="40" as="geometry" />
        </mxCell>
        <mxCell id="XpTZmv0MdNqDgMKop7gp-200" value="" style="rounded=0;whiteSpace=wrap;html=1;fillColor=#fff2cc;strokeColor=#d6b656;" vertex="1" parent="1">
          <mxGeometry x="1090" y="975" width="40" height="40" as="geometry" />
        </mxCell>
        <mxCell id="XpTZmv0MdNqDgMKop7gp-201" value="" style="rounded=0;whiteSpace=wrap;html=1;fillColor=#fff2cc;strokeColor=#d6b656;" vertex="1" parent="1">
          <mxGeometry x="1050" y="975" width="40" height="40" as="geometry" />
        </mxCell>
        <mxCell id="XpTZmv0MdNqDgMKop7gp-202" value="" style="rounded=0;whiteSpace=wrap;html=1;fillColor=#fff2cc;strokeColor=#d6b656;" vertex="1" parent="1">
          <mxGeometry x="1010" y="1015" width="40" height="40" as="geometry" />
        </mxCell>
        <mxCell id="XpTZmv0MdNqDgMKop7gp-203" value="" style="rounded=0;whiteSpace=wrap;html=1;fillColor=#fff2cc;strokeColor=#d6b656;" vertex="1" parent="1">
          <mxGeometry x="1090" y="1015" width="40" height="40" as="geometry" />
        </mxCell>
        <mxCell id="XpTZmv0MdNqDgMKop7gp-204" value="" style="rounded=0;whiteSpace=wrap;html=1;fillColor=#fff2cc;strokeColor=#d6b656;" vertex="1" parent="1">
          <mxGeometry x="1050" y="1015" width="40" height="40" as="geometry" />
        </mxCell>
        <mxCell id="XpTZmv0MdNqDgMKop7gp-205" value="" style="rounded=0;whiteSpace=wrap;html=1;fillColor=#fff2cc;strokeColor=#d6b656;" vertex="1" parent="1">
          <mxGeometry x="1010" y="1055" width="40" height="40" as="geometry" />
        </mxCell>
        <mxCell id="XpTZmv0MdNqDgMKop7gp-206" value="" style="rounded=0;whiteSpace=wrap;html=1;fillColor=#fff2cc;strokeColor=#d6b656;" vertex="1" parent="1">
          <mxGeometry x="1090" y="1055" width="40" height="40" as="geometry" />
        </mxCell>
        <mxCell id="XpTZmv0MdNqDgMKop7gp-207" value="" style="rounded=0;whiteSpace=wrap;html=1;fillColor=#fff2cc;strokeColor=#d6b656;" vertex="1" parent="1">
          <mxGeometry x="1050" y="1055" width="40" height="40" as="geometry" />
        </mxCell>
        <mxCell id="XpTZmv0MdNqDgMKop7gp-208" value="&lt;font style=&quot;font-size: 36px;&quot;&gt;...&lt;/font&gt;" style="text;html=1;align=center;verticalAlign=middle;resizable=0;points=[];autosize=1;strokeColor=none;fillColor=none;fontSize=24;" vertex="1" parent="1">
          <mxGeometry x="910" y="1005" width="50" height="60" as="geometry" />
        </mxCell>
        <mxCell id="XpTZmv0MdNqDgMKop7gp-209" value="" style="shape=curlyBracket;whiteSpace=wrap;html=1;rounded=1;flipH=1;fontSize=36;" vertex="1" parent="1">
          <mxGeometry x="1160" y="515" width="20" height="115" as="geometry" />
        </mxCell>
        <mxCell id="XpTZmv0MdNqDgMKop7gp-210" value="&lt;font style=&quot;font-size: 24px;&quot;&gt;μ,&amp;nbsp;σ^2&lt;/font&gt;" style="text;whiteSpace=wrap;html=1;fontSize=36;" vertex="1" parent="1">
          <mxGeometry x="1190" y="535" width="100" height="70" as="geometry" />
        </mxCell>
        <mxCell id="XpTZmv0MdNqDgMKop7gp-211" value="" style="shape=curlyBracket;whiteSpace=wrap;html=1;rounded=1;flipH=1;fontSize=36;" vertex="1" parent="1">
          <mxGeometry x="1170" y="665" width="20" height="115" as="geometry" />
        </mxCell>
        <mxCell id="XpTZmv0MdNqDgMKop7gp-212" value="&lt;font style=&quot;font-size: 24px;&quot;&gt;μ,&amp;nbsp;σ^2&lt;/font&gt;" style="text;whiteSpace=wrap;html=1;fontSize=36;" vertex="1" parent="1">
          <mxGeometry x="1200" y="685" width="100" height="70" as="geometry" />
        </mxCell>
        <mxCell id="XpTZmv0MdNqDgMKop7gp-213" value="" style="shape=curlyBracket;whiteSpace=wrap;html=1;rounded=1;flipH=1;fontSize=36;" vertex="1" parent="1">
          <mxGeometry x="1170" y="822.5" width="20" height="115" as="geometry" />
        </mxCell>
        <mxCell id="XpTZmv0MdNqDgMKop7gp-214" value="&lt;font style=&quot;font-size: 24px;&quot;&gt;μ,&amp;nbsp;σ^2&lt;/font&gt;" style="text;whiteSpace=wrap;html=1;fontSize=36;" vertex="1" parent="1">
          <mxGeometry x="1200" y="842.5" width="100" height="70" as="geometry" />
        </mxCell>
        <mxCell id="XpTZmv0MdNqDgMKop7gp-215" value="" style="shape=curlyBracket;whiteSpace=wrap;html=1;rounded=1;flipH=1;fontSize=36;" vertex="1" parent="1">
          <mxGeometry x="1170" y="980" width="20" height="115" as="geometry" />
        </mxCell>
        <mxCell id="XpTZmv0MdNqDgMKop7gp-216" value="&lt;font style=&quot;font-size: 24px;&quot;&gt;μ,&amp;nbsp;σ^2&lt;/font&gt;" style="text;whiteSpace=wrap;html=1;fontSize=36;" vertex="1" parent="1">
          <mxGeometry x="1200" y="1000" width="100" height="70" as="geometry" />
        </mxCell>
        <mxCell id="XpTZmv0MdNqDgMKop7gp-217" value="" style="shape=image;verticalLabelPosition=bottom;labelBackgroundColor=default;verticalAlign=top;aspect=fixed;imageAspect=0;image=data:image/png,iVBORw0KGgoAAAANSUhEUgAAAMUAAABQCAYAAACpk7EAAAANN0lEQVR4nO2dz2scZRjHP4mGtmL30CL0kFOHGFhRGKWMFSq1OK1iQJYVPSjC5qDrHDK1hzD/gLgEQTahw4LYPdSDl3XBxEN4obv0EBkU9iAsrWFSUlAQLIE5mPTQxsPsbnY3s8luMvsjm/cDgbbzdmdmM9953+d5nx8jnudtI5FIaoz2+wIkkkFDikIiaUKKQiJpQopCImlCikIiaUKKQiJpQoqib7gI20SPRNBtt+mQjalHiAQdG0oEZiRCJKKz+3Zd7B5/F8/25CySRlyBmYyTdSp/zy/jGgYK4AoTNZ7t59X1HneVMgBRJpTmg2vcdwA0Ytd2HewKcqboNa6NrsYpx0qUcgn/35z7rAEIEzVeJlXy8HIJevkg9BN3OY//3E9yvvmgWMJ/RQQJpjtIUfQQV5hE1DzRXAlhKCjnJ9FqB230eJlUSWAowPlJNC3GMdAEa/5UgBa7RvPtuqv+HBIomC4hl089w2V5ru6hB1AmiAIOWeIqJHJe3TEDIVp9lsCMxMmSIOel0Q98TdXPOSha4/0cCJfqcx8NmAr2Eky3kDNFz1AwRPMDdJ7J6lSRyJFu9+mursETU4cQxIDgLpOv2AyTu6aCvQXjChtT19EjviHe8KPr6KaNOIBtLmeKvrJjRKZmOni8FQPhGSGcXyfteaRD+KQDs3bftyf2MbIbBeNi60nysVkymQygoKyZROqWn65rM5+0iKt5EjnR/gsHOVP0ERdbn6OsATjcX+v39fSHms0QNOu1MLKFqWIRI2PoKIqCorjYc9mGcYpikM6k0HDILrVchwYiRdEXXGxdJR/LkIlpLcYITN2k4dfp2nVLhaZjRxKX5XzFZti1dqo+6AQIRkMDdt4jlRmleVzFZusUKYqe4GLrpr++dQW2rmKRImMoKBP+r6286jaNn4PZJiNaMRCllO+x6qE3pntUl0cBNoOYx6ocaxaMnhYIYex8N5UZZZewKrZXYqozy0uKoheIeSwnS1yNEFHjWI5GKmM0eFOc/DIu+Bt7epL7s5m918HRiZ55Y7pGbdOu+d8F5hykEv4sGmRkN35Medc417UxVaszB0YFKYoeIJYanZ6JXJ0XSp8iAeBYqJEIEXUOZjOk9RYPQsUw7fTtN4jUNu2omyldgZmcYzKTZqJ2FMDFNoPCQHbcttn4jvdJVS2yWopMp4pAiqIH7LgV0RKkSl7Tm0tnJqXVjudKorUgqAosyH159KjtQWjgWKof3zS/ylTGf2noU/5SMRuPENHnYSoTsCci8L+SFCXPw/M8PK9ELpVAcyzUA9heobtk//77bz755BMePnzIhQsXuHXrFqdOnQr7NEcIBUN47OVAVQxBex7WqsB6F/LQPar3kmBWtNiA1NtwPVeXYA3LSQXdSHOeMqpVZtWFPd4zuwh1prh37x5vv/02v//+O48fP+aXX34hFovheV6Ypzm+VDe6hsHIDuleqkuwoOVk1YnRKaGJ4tdff+Xq1at4nsd3333Hn3/+yWeffcbKygrvvfce//77b1inOr5U7Ilehjx0jdqm3WGouHS1FEF7n+5qGQ4QPxaKKBYXF3n//fd59dVXcRyHjz76iFOnTvHNN9+Qz+f5559/eOedd/jrr7/COJ0EKq7dYMPzKFBzPhzGiybmAz15fq6KTjIfoySaj+3PyGHrPv33339cunQJwzCYnp5mZGRk15iNjQ1u3LjBuXPn+Prrrw9zumOOv+lnOfhGeSbd0Vp5kHBtHdVyIJHD69RD5ApMtVUgo4amRYnNzmAc8Ms5tCgAnj59yujo/pNOu+Mkkn4SyhPa7oMuBSE5CoT2lLqVfOPgXFoXYeqVkF6bI7oMlhwTQhGFa+skmUF4JVIaOFaywQAUpko8Wwty6bLnpJoEf9Cfo2u8SsIhBFEI5vNRZg0FULgW0wCH/HLlyRIm8axGquRRSmkB0ZASyWARiqHdgDCJxLO+V2FmFV21iOaaQxskksEl/My7SjK+U17CTGYhVTr2gvjpp59wnMNvVUkOx/T0NJOTk/uOC18UyjVimoXjZMlqKUptZbWHlYg/mNy9e5dbt271+zKOPbqu90kUdSRm29xNHKZE/ACuX7/Oxx9/3O/LOPa8+OKLbY3rnk0BaCm/vlFvGYSyLZKjTLi7adWCXjk/Dt45rtn4kiNNiDOF/4Yup0oIY609G8G10VWrEi05nPaE5OhxuJnCtdF1GxcXW4/76X9+zcdKkS8/wQMAYe7e6R66RHzJMHA4Q3vtPo6TRY1Y+G/6qmHtb+JZjr+JZxhgz5WJZfZYqA9DIn6X2draYnp6mu1t2dC2U7799lvOnTvX1thDiWKn+G0ljLnumGLMksjHyVoqkXyCXEYEhzkPUSJ+t3Ech6WlpX5fxpHkq6++anvsoUSxd26xTlrsX5JxmBLxu02xWOTEiRPcu3ePsbExNjc3+31JR4azZ8+2PbbPtWSHKRG/+xQKBS5evFj7BUcikT5f0XDS3wSHYUrE7zIbGxuUSiXeeuut0D/bdQW22VS9WzexD1KyewjoryiGKRG/y9y9e5ft7W2uXLkS7gcLE1WNY5VjzJb8ukmlXArNyWLFVcyjX7C2YwYnFe6IJ+J3m2KxyNmzZ3n55Ze78Ol+8n/VEaLoBplKgbbGGrfHg/7aFPoMKS2LtZ+HSkKhUODy5cvhp/TqaWRZrkb6bGjvXz1PAg8fPmRtbY0bN2707Jx+Scvj0YiymcFZPklaUigUAMK3J1rh2sxlQUsF1W4dfqQojgDFYpGJiQnGx8d7cDaBqVo4iVwXIpyrjeIHu+GMFMWA8/TpU4rFYldcsbsRmHqc7EEKlA0RUhQDzh9//MGjR496sHSqBHVGj7cgQIpi4CkWizzzzDNcunSpi2eplOOM5igdc0GAFMXAUygUuHDhAqdPn277/7jC9neodb1lfav6MH7XTmKRopTWGzZRXWEeoeJ1LsI20fWm+6z2GuwA2Ud7gNna2mJlZYUvv/yyrfGuMEnGs22VuK/1h3NtkpYDOJUUgCYSuYGPNqjdt5YgNVtCVDe7XBexvEynNyBFMcA4jsPW1lZb9kStijf4bcSqVbdFY9P1ZsS8FUKfiD4iTNR41m/v1Vx2X1HQjc53waQoBphiscjp06d57bXX9h4ozJogtESOTP0y6PwkGlmspM21gF4NetrD2y++f1BxbfS4n3qwu0fFwZE2xQBTKBR48803efbZvd5d9U3Yc4gmu6DWYN3Js9wT42CvWr6V3hpkiYdQy7c2yyVmQ91klKIYUNoOFa81YddIBfW4quEwVMVVKrvu+99358jlUx948uQJP//8MxsbG0xPTweOaTdUvNYmq9XbslUD966hk/ZaZVxWOzGFULml1jPPwVIjBLgIDtYlCSmKnrK5ucnt27dZWFhgfX2dSCTChx9+yPPPP79rbLFYZHx8HEXZa12w06O7ZTX32sPTOuXXFTbzc3nKjrPb6NY0tGiM2RljoCKYa/UBurD7LpdPPeSDDz7gxx9/5IsvvgDA8zx++OGHwLF37tzhypUrgT0Eg4i2yOetzSSBXUJdbF0nuTrBTCZDpuTh5RL4VRIrCUeZGNGyRVzVByrhqNaYvgvJ/VIUPeT27dvcuXMHwzB49913Abh58yZPnjxpGLe+vs6DBw/aiHdS2LtVtGBHE7uzG4WpYhEjY+goioKiVI32nZx5RTFIZ1JoOGSXBkcV5/3CYl1BiqKHnDlzpvbnam7E+vo6i4uLDeOKxSIjIyNcvnx538+sPhxBGXLCrNTUrRWpa0ZDA3bs7zXu+/WGGtf7VQ/WAFFtHO/kl0PfcZei6BOapnHx4kUAFhYWGo4Vi0VeeeWVtsqyKMYsCcCx5uvCGfweg74LP2BTq4KeFghh7AhALJElYElSMdYHqjaXPkNKAxyLpCnqhOHiChvzEOEpUhR9pBq+8dtvv9WaulRDxduPitVJeyVyiTJz6s5+wFw5SipXwuuguXrVeK23T1zXxlQtSOQGrPmOgiFK5BIaZOOotSokSZJLMJU5eDEM6X3qI1evXiUajVIul1lYWEDTtFqoeGf5Ewp6WqAfcme6arxm45HGVgZaakCjZ8O572bkTNFHRkdHuX79OgCLi4s8ePCAYrHIyZMnef3113t8NRWjXEtR8nzPk+eVyKUSaI6FGkq2nJ+T7w14dXkpij4Tj8cZHx9ne3ubmzdvUigUeOONNzh58mRvL6S6yddQ6FpBN9KVcjd1FeSHHCmKPjM2NsbMzAzgu2xXVlZ6V6CgDnc537LQtbK333fokKIYAD799FPOnDnD5uYmW1tbPcrHrsdlOe+AliIojMhdLbfY/BtOpCgGgOeee47PP/8cgBdeeIGXXnqptxcg5rGcoPBrF2HrJPOxlm7dYST8RpCSA/Ho0SOi0ShTU1N8//33vTmpKzDVVk0zNTQtSqyarHSMkKIYIB4/fszo6ChjY2P9vpRjjdynGCBOnDjR70uQIG0KiWQXUhQSSRNSFBJJE1IUEkkTUhQSSRNSFBJJE/8DCqRurk3rFfoAAAAASUVORK5CYII=;" vertex="1" parent="1">
          <mxGeometry x="1290" y="745" width="197" height="80" as="geometry" />
        </mxCell>
        <mxCell id="XpTZmv0MdNqDgMKop7gp-254" value="" style="rounded=0;whiteSpace=wrap;html=1;fillColor=#fff2cc;strokeColor=#d6b656;" vertex="1" parent="1">
          <mxGeometry x="1650" y="505" width="120" height="110" as="geometry" />
        </mxCell>
        <mxCell id="XpTZmv0MdNqDgMKop7gp-255" value="" style="rounded=0;whiteSpace=wrap;html=1;fillColor=#d5e8d4;strokeColor=#82b366;" vertex="1" parent="1">
          <mxGeometry x="1640" y="510" width="120" height="115" as="geometry" />
        </mxCell>
        <mxCell id="XpTZmv0MdNqDgMKop7gp-256" value="" style="rounded=0;whiteSpace=wrap;html=1;fillColor=#dae8fc;strokeColor=#6c8ebf;" vertex="1" parent="1">
          <mxGeometry x="1630" y="515" width="120" height="120" as="geometry" />
        </mxCell>
        <mxCell id="XpTZmv0MdNqDgMKop7gp-257" value="" style="rounded=0;whiteSpace=wrap;html=1;fillColor=#f8cecc;strokeColor=#b85450;" vertex="1" parent="1">
          <mxGeometry x="1620" y="520" width="40" height="40" as="geometry" />
        </mxCell>
        <mxCell id="XpTZmv0MdNqDgMKop7gp-258" value="" style="rounded=0;whiteSpace=wrap;html=1;fillColor=#f8cecc;strokeColor=#b85450;" vertex="1" parent="1">
          <mxGeometry x="1700" y="520" width="40" height="40" as="geometry" />
        </mxCell>
        <mxCell id="XpTZmv0MdNqDgMKop7gp-259" value="" style="rounded=0;whiteSpace=wrap;html=1;fillColor=#f8cecc;strokeColor=#b85450;" vertex="1" parent="1">
          <mxGeometry x="1660" y="520" width="40" height="40" as="geometry" />
        </mxCell>
        <mxCell id="XpTZmv0MdNqDgMKop7gp-260" value="" style="rounded=0;whiteSpace=wrap;html=1;fillColor=#f8cecc;strokeColor=#b85450;" vertex="1" parent="1">
          <mxGeometry x="1620" y="560" width="40" height="40" as="geometry" />
        </mxCell>
        <mxCell id="XpTZmv0MdNqDgMKop7gp-261" value="" style="rounded=0;whiteSpace=wrap;html=1;fillColor=#f8cecc;strokeColor=#b85450;" vertex="1" parent="1">
          <mxGeometry x="1700" y="560" width="40" height="40" as="geometry" />
        </mxCell>
        <mxCell id="XpTZmv0MdNqDgMKop7gp-262" value="" style="rounded=0;whiteSpace=wrap;html=1;fillColor=#f8cecc;strokeColor=#b85450;" vertex="1" parent="1">
          <mxGeometry x="1660" y="560" width="40" height="40" as="geometry" />
        </mxCell>
        <mxCell id="XpTZmv0MdNqDgMKop7gp-263" value="" style="rounded=0;whiteSpace=wrap;html=1;fillColor=#f8cecc;strokeColor=#b85450;" vertex="1" parent="1">
          <mxGeometry x="1620" y="600" width="40" height="40" as="geometry" />
        </mxCell>
        <mxCell id="XpTZmv0MdNqDgMKop7gp-264" value="" style="rounded=0;whiteSpace=wrap;html=1;fillColor=#f8cecc;strokeColor=#b85450;" vertex="1" parent="1">
          <mxGeometry x="1700" y="600" width="40" height="40" as="geometry" />
        </mxCell>
        <mxCell id="XpTZmv0MdNqDgMKop7gp-265" value="" style="rounded=0;whiteSpace=wrap;html=1;fillColor=#f8cecc;strokeColor=#b85450;" vertex="1" parent="1">
          <mxGeometry x="1660" y="600" width="40" height="40" as="geometry" />
        </mxCell>
        <mxCell id="XpTZmv0MdNqDgMKop7gp-266" value="" style="rounded=0;whiteSpace=wrap;html=1;fillColor=#fff2cc;strokeColor=#d6b656;" vertex="1" parent="1">
          <mxGeometry x="1650" y="722.5" width="120" height="110" as="geometry" />
        </mxCell>
        <mxCell id="XpTZmv0MdNqDgMKop7gp-267" value="" style="rounded=0;whiteSpace=wrap;html=1;fillColor=#d5e8d4;strokeColor=#82b366;" vertex="1" parent="1">
          <mxGeometry x="1640" y="727.5" width="120" height="115" as="geometry" />
        </mxCell>
        <mxCell id="XpTZmv0MdNqDgMKop7gp-268" value="" style="rounded=0;whiteSpace=wrap;html=1;fillColor=#dae8fc;strokeColor=#6c8ebf;" vertex="1" parent="1">
          <mxGeometry x="1630" y="732.5" width="120" height="120" as="geometry" />
        </mxCell>
        <mxCell id="XpTZmv0MdNqDgMKop7gp-269" value="" style="rounded=0;whiteSpace=wrap;html=1;fillColor=#f8cecc;strokeColor=#b85450;" vertex="1" parent="1">
          <mxGeometry x="1620" y="737.5" width="40" height="40" as="geometry" />
        </mxCell>
        <mxCell id="XpTZmv0MdNqDgMKop7gp-270" value="" style="rounded=0;whiteSpace=wrap;html=1;fillColor=#f8cecc;strokeColor=#b85450;" vertex="1" parent="1">
          <mxGeometry x="1700" y="737.5" width="40" height="40" as="geometry" />
        </mxCell>
        <mxCell id="XpTZmv0MdNqDgMKop7gp-271" value="" style="rounded=0;whiteSpace=wrap;html=1;fillColor=#f8cecc;strokeColor=#b85450;" vertex="1" parent="1">
          <mxGeometry x="1660" y="737.5" width="40" height="40" as="geometry" />
        </mxCell>
        <mxCell id="XpTZmv0MdNqDgMKop7gp-272" value="" style="rounded=0;whiteSpace=wrap;html=1;fillColor=#f8cecc;strokeColor=#b85450;" vertex="1" parent="1">
          <mxGeometry x="1620" y="777.5" width="40" height="40" as="geometry" />
        </mxCell>
        <mxCell id="XpTZmv0MdNqDgMKop7gp-273" value="" style="rounded=0;whiteSpace=wrap;html=1;fillColor=#f8cecc;strokeColor=#b85450;" vertex="1" parent="1">
          <mxGeometry x="1700" y="777.5" width="40" height="40" as="geometry" />
        </mxCell>
        <mxCell id="XpTZmv0MdNqDgMKop7gp-274" value="" style="rounded=0;whiteSpace=wrap;html=1;fillColor=#f8cecc;strokeColor=#b85450;" vertex="1" parent="1">
          <mxGeometry x="1660" y="777.5" width="40" height="40" as="geometry" />
        </mxCell>
        <mxCell id="XpTZmv0MdNqDgMKop7gp-275" value="" style="rounded=0;whiteSpace=wrap;html=1;fillColor=#f8cecc;strokeColor=#b85450;" vertex="1" parent="1">
          <mxGeometry x="1620" y="817.5" width="40" height="40" as="geometry" />
        </mxCell>
        <mxCell id="XpTZmv0MdNqDgMKop7gp-276" value="" style="rounded=0;whiteSpace=wrap;html=1;fillColor=#f8cecc;strokeColor=#b85450;" vertex="1" parent="1">
          <mxGeometry x="1700" y="817.5" width="40" height="40" as="geometry" />
        </mxCell>
        <mxCell id="XpTZmv0MdNqDgMKop7gp-277" value="" style="rounded=0;whiteSpace=wrap;html=1;fillColor=#f8cecc;strokeColor=#b85450;" vertex="1" parent="1">
          <mxGeometry x="1660" y="817.5" width="40" height="40" as="geometry" />
        </mxCell>
        <mxCell id="XpTZmv0MdNqDgMKop7gp-278" value="" style="rounded=0;whiteSpace=wrap;html=1;fillColor=#fff2cc;strokeColor=#d6b656;" vertex="1" parent="1">
          <mxGeometry x="1650" y="965" width="120" height="110" as="geometry" />
        </mxCell>
        <mxCell id="XpTZmv0MdNqDgMKop7gp-279" value="" style="rounded=0;whiteSpace=wrap;html=1;fillColor=#d5e8d4;strokeColor=#82b366;" vertex="1" parent="1">
          <mxGeometry x="1640" y="970" width="120" height="115" as="geometry" />
        </mxCell>
        <mxCell id="XpTZmv0MdNqDgMKop7gp-280" value="" style="rounded=0;whiteSpace=wrap;html=1;fillColor=#dae8fc;strokeColor=#6c8ebf;" vertex="1" parent="1">
          <mxGeometry x="1630" y="975" width="120" height="120" as="geometry" />
        </mxCell>
        <mxCell id="XpTZmv0MdNqDgMKop7gp-281" value="" style="rounded=0;whiteSpace=wrap;html=1;fillColor=#f8cecc;strokeColor=#b85450;" vertex="1" parent="1">
          <mxGeometry x="1620" y="980" width="40" height="40" as="geometry" />
        </mxCell>
        <mxCell id="XpTZmv0MdNqDgMKop7gp-282" value="" style="rounded=0;whiteSpace=wrap;html=1;fillColor=#f8cecc;strokeColor=#b85450;" vertex="1" parent="1">
          <mxGeometry x="1700" y="980" width="40" height="40" as="geometry" />
        </mxCell>
        <mxCell id="XpTZmv0MdNqDgMKop7gp-283" value="" style="rounded=0;whiteSpace=wrap;html=1;fillColor=#f8cecc;strokeColor=#b85450;" vertex="1" parent="1">
          <mxGeometry x="1660" y="980" width="40" height="40" as="geometry" />
        </mxCell>
        <mxCell id="XpTZmv0MdNqDgMKop7gp-284" value="" style="rounded=0;whiteSpace=wrap;html=1;fillColor=#f8cecc;strokeColor=#b85450;" vertex="1" parent="1">
          <mxGeometry x="1620" y="1020" width="40" height="40" as="geometry" />
        </mxCell>
        <mxCell id="XpTZmv0MdNqDgMKop7gp-285" value="" style="rounded=0;whiteSpace=wrap;html=1;fillColor=#f8cecc;strokeColor=#b85450;" vertex="1" parent="1">
          <mxGeometry x="1700" y="1020" width="40" height="40" as="geometry" />
        </mxCell>
        <mxCell id="XpTZmv0MdNqDgMKop7gp-286" value="" style="rounded=0;whiteSpace=wrap;html=1;fillColor=#f8cecc;strokeColor=#b85450;" vertex="1" parent="1">
          <mxGeometry x="1660" y="1020" width="40" height="40" as="geometry" />
        </mxCell>
        <mxCell id="XpTZmv0MdNqDgMKop7gp-287" value="" style="rounded=0;whiteSpace=wrap;html=1;fillColor=#f8cecc;strokeColor=#b85450;" vertex="1" parent="1">
          <mxGeometry x="1620" y="1060" width="40" height="40" as="geometry" />
        </mxCell>
        <mxCell id="XpTZmv0MdNqDgMKop7gp-288" value="" style="rounded=0;whiteSpace=wrap;html=1;fillColor=#f8cecc;strokeColor=#b85450;" vertex="1" parent="1">
          <mxGeometry x="1700" y="1060" width="40" height="40" as="geometry" />
        </mxCell>
        <mxCell id="XpTZmv0MdNqDgMKop7gp-289" value="" style="rounded=0;whiteSpace=wrap;html=1;fillColor=#f8cecc;strokeColor=#b85450;" vertex="1" parent="1">
          <mxGeometry x="1660" y="1060" width="40" height="40" as="geometry" />
        </mxCell>
        <mxCell id="XpTZmv0MdNqDgMKop7gp-290" value="特征图" style="text;html=1;align=center;verticalAlign=middle;resizable=0;points=[];autosize=1;strokeColor=none;fillColor=none;fontSize=24;" vertex="1" parent="1">
          <mxGeometry x="340" y="1130" width="100" height="40" as="geometry" />
        </mxCell>
        <mxCell id="XpTZmv0MdNqDgMKop7gp-291" value="正则化后的特征图" style="text;html=1;align=center;verticalAlign=middle;resizable=0;points=[];autosize=1;strokeColor=none;fillColor=none;fontSize=24;" vertex="1" parent="1">
          <mxGeometry x="1580" y="1130" width="220" height="40" as="geometry" />
        </mxCell>
        <mxCell id="XpTZmv0MdNqDgMKop7gp-292" value="CONV" style="rounded=0;whiteSpace=wrap;html=1;fillColor=#ffe6cc;strokeColor=#d79b00;" vertex="1" parent="1">
          <mxGeometry x="1065" y="255" width="80" height="130" as="geometry" />
        </mxCell>
        <mxCell id="XpTZmv0MdNqDgMKop7gp-293" value="BN" style="rounded=0;whiteSpace=wrap;html=1;fillColor=#b1ddf0;strokeColor=#10739e;" vertex="1" parent="1">
          <mxGeometry x="1145" y="255" width="40" height="130" as="geometry" />
        </mxCell>
        <mxCell id="XpTZmv0MdNqDgMKop7gp-294" value="relu" style="rounded=0;whiteSpace=wrap;html=1;fillColor=#f5f5f5;strokeColor=#666666;fontColor=#333333;" vertex="1" parent="1">
          <mxGeometry x="1185" y="255" width="40" height="130" as="geometry" />
        </mxCell>
        <mxCell id="XpTZmv0MdNqDgMKop7gp-295" value="" style="edgeStyle=orthogonalEdgeStyle;rounded=0;orthogonalLoop=1;jettySize=auto;html=1;" edge="1" parent="1">
          <mxGeometry relative="1" as="geometry">
            <mxPoint x="1224.9999999999995" y="319.5" as="sourcePoint" />
            <mxPoint x="1294.9999999999995" y="319.5" as="targetPoint" />
          </mxGeometry>
        </mxCell>
        <mxCell id="XpTZmv0MdNqDgMKop7gp-296" value="CONV" style="rounded=0;whiteSpace=wrap;html=1;fillColor=#ffe6cc;strokeColor=#d79b00;" vertex="1" parent="1">
          <mxGeometry x="1300" y="255" width="80" height="130" as="geometry" />
        </mxCell>
        <mxCell id="XpTZmv0MdNqDgMKop7gp-297" value="BN" style="rounded=0;whiteSpace=wrap;html=1;fillColor=#b1ddf0;strokeColor=#10739e;" vertex="1" parent="1">
          <mxGeometry x="1380" y="255" width="40" height="130" as="geometry" />
        </mxCell>
        <mxCell id="XpTZmv0MdNqDgMKop7gp-298" value="relu" style="rounded=0;whiteSpace=wrap;html=1;fillColor=#f5f5f5;strokeColor=#666666;fontColor=#333333;" vertex="1" parent="1">
          <mxGeometry x="1420" y="255" width="40" height="130" as="geometry" />
        </mxCell>
        <mxCell id="XpTZmv0MdNqDgMKop7gp-299" value="" style="edgeStyle=orthogonalEdgeStyle;rounded=0;orthogonalLoop=1;jettySize=auto;html=1;" edge="1" parent="1">
          <mxGeometry relative="1" as="geometry">
            <mxPoint x="1459.9999999999995" y="319.5" as="sourcePoint" />
            <mxPoint x="1529.9999999999995" y="319.5" as="targetPoint" />
          </mxGeometry>
        </mxCell>
      </root>
    </mxGraphModel>
  </diagram>
</mxfile>
